<svg xmlns="http://www.w3.org/2000/svg" width="1916.688" height="1852.094" viewBox="0 0 1916.688 1852.094">
  <defs>
    <style>
      .cls-1 {
        fill: #fff;
        fill-rule: evenodd;
      }
    </style>
  </defs>
  <path id="SVG_layer_white" data-name="SVG layer white" class="cls-1" d="M1636,703c2.76,270.385-59.43,591.13-126,805-16.34,52.5-66.64,197.42-108,215H598c-50.137-21.62-92.109-178.05-116-237C197.938,1549.03-46.413,1214.74,70,942c37.353-87.512,107.084-162.164,193-201,29.909-13.52,74.084-19.984,101-38l182-2c-6.608-27.623,29.334-66.269,38-80,20.035-31.745,35.037-90.38,55-128l94-145c19.3-34.988-17.251-113.11-1-126l18-6,97,15,93-14,8,1c145.66-50.371,458.4-116.479,591-23,65.05,45.86,110.72,214.116,66,280l-6,11c-29.07,46.358-54.87,83.849-98,115l-9,9-9,5-6,4-9,4c-18.42,11.483-49.3,18.7-78,24-3.33.667-6.67,1.333-10,2-11.4,11.444-33.57,17.06-37,43-0.33,3.666-.67,7.334-1,11h294ZM1328,151h0Zm-273,27h0ZM673,436h0ZM374,873c-55.834,24.732-97,42.633-130,89-114.037,160.25,9.543,368.69,198,364q-26-158.985-52-318Q382,940.507,374,873ZM43,1788H1957c-27.72,94.12-200.6,193.47-308,212H728c-159.206.01-358.269,16.02-470-32C177.919,1933.58,68.126,1875.18,43,1788Z" transform="translate(-40.313 -147.906)"/>
</svg>
